<?xml version="1.0" standalone="no"?><!DOCTYPE svg PUBLIC "-//W3C//DTD SVG 1.1//EN" "http://www.w3.org/Graphics/SVG/1.1/DTD/svg11.dtd"><svg t="1525068704175" class="icon" style="" viewBox="0 0 1024 1024" version="1.1" xmlns="http://www.w3.org/2000/svg" p-id="6126" xmlns:xlink="http://www.w3.org/1999/xlink" width="48" height="48"><defs><style type="text/css">@font-face { font-family: uc-nexus-iconfont; src: url("chrome-extension://pogijhnlcfmcppgimcaccdkmbedjkmhi/res/font_9qmmi8b8jsxxbt9.woff") format("woff"), url("chrome-extension://pogijhnlcfmcppgimcaccdkmbedjkmhi/res/font_9qmmi8b8jsxxbt9.ttf") format("truetype"); }
</style></defs><path d="M512 0C228.266667 0 0 228.266667 0 512s228.266667 512 512 512 512-228.266667 512-512S795.733333 0 512 0z m0 981.333333C253.866667 981.333333 42.666667 770.133333 42.666667 512S253.866667 42.666667 512 42.666667s469.333333 211.2 469.333333 469.333333-211.2 469.333333-469.333333 469.333333z" fill="#8a8a8a" p-id="6127"></path><path d="M256 448m-64 0a64 64 0 1 0 128 0 64 64 0 1 0-128 0Z" fill="#8a8a8a" p-id="6128"></path><path d="M768 448m-64 0a64 64 0 1 0 128 0 64 64 0 1 0-128 0Z" fill="#8a8a8a" p-id="6129"></path><path d="M512 699.733333c-83.2 0-160 25.6-226.133333 74.666667-8.533333 6.4-10.666667 21.333333-4.266667 29.866667 6.4 8.533333 21.333333 10.666667 29.866667 4.266666 57.6-42.666667 128-66.133333 200.533333-66.133333 72.533333 0 142.933333 23.466667 200.533333 66.133333 4.266667 2.133333 8.533333 4.266667 12.8 4.266667 6.4 0 12.8-2.133333 17.066667-8.533333 6.4-8.533333 4.266667-23.466667-4.266667-29.866667-64-49.066667-142.933333-74.666667-226.133333-74.666667z" fill="#8a8a8a" p-id="6130"></path></svg>