<?xml version="1.0" standalone="no"?><!DOCTYPE svg PUBLIC "-//W3C//DTD SVG 1.1//EN" "http://www.w3.org/Graphics/SVG/1.1/DTD/svg11.dtd"><svg t="1525068545727" class="icon" style="" viewBox="0 0 1024 1024" version="1.1" xmlns="http://www.w3.org/2000/svg" p-id="4748" xmlns:xlink="http://www.w3.org/1999/xlink" width="48" height="48"><defs><style type="text/css">@font-face { font-family: uc-nexus-iconfont; src: url("chrome-extension://pogijhnlcfmcppgimcaccdkmbedjkmhi/res/font_9qmmi8b8jsxxbt9.woff") format("woff"), url("chrome-extension://pogijhnlcfmcppgimcaccdkmbedjkmhi/res/font_9qmmi8b8jsxxbt9.ttf") format("truetype"); }
</style></defs><path d="M511.997953 527.956414M511.997953 527.956414M512 958.708971c-246.320035 0-446.708971-200.38996-446.708971-446.708971S265.679965 65.290005 512 65.290005 958.708971 265.679965 958.708971 512 758.319012 958.708971 512 958.708971zM512 97.198739c-228.729401 0-414.801261 186.080046-414.801261 414.801261S283.269575 926.801261 512 926.801261s414.801261-186.080046 414.801261-414.801261S740.729401 97.198739 512 97.198739zM655.583163 384.371204A23.386 46.772 0 1 1 655.583163 385.394511ZM679.516248 448.184579c-23.105231 0-39.884382-26.836205-39.884382-63.815421s16.779152-63.815421 39.884382-63.815421c23.105231 0 39.884382 26.836205 39.884382 63.815421S702.620455 448.184579 679.516248 448.184579zM679.516248 353.395726c-3.100618 3.64604-7.976672 14.427594-7.976672 30.973432s4.877077 27.327392 7.976672 30.973432c3.100618-3.64604 7.976672-14.426571 7.976672-30.973432S682.615842 357.041766 679.516248 353.395726zM320.550667 384.371204A23.386 46.772 0 1 1 320.550667 385.394511ZM344.483752 448.184579c-23.105231 0-39.884382-26.836205-39.884382-63.815421s16.779152-63.815421 39.884382-63.815421 39.884382 26.836205 39.884382 63.815421S367.588983 448.184579 344.483752 448.184579zM344.483752 353.395726c-3.100618 3.64604-7.976672 14.427594-7.976672 30.973432s4.876054 27.327392 7.976672 30.973432c3.100618-3.64604 7.976672-14.426571 7.976672-30.973432S347.58437 357.041766 344.483752 353.395726zM783.214005 567.841819c0 127.760802-121.42756 231.331669-271.216052 231.331669S240.781902 695.602621 240.781902 567.841819M512 815.123762c-158.339238 0-287.170418-110.929462-287.170418-247.286036 0-8.810666 7.135514-15.954367 15.954367-15.954367s15.954367 7.143701 15.954367 15.954367c0 118.758778 114.51308 215.377302 255.262708 215.377302s255.262708-96.619548 255.262708-215.377302c0-8.810666 7.135514-15.954367 15.954367-15.954367s15.954367 7.143701 15.954367 15.954367C799.170418 704.1943 670.339238 815.123762 512 815.123762zM240.782925 551.884382l542.433126 0 0 31.907711-542.433126 0 0-31.907711Z" p-id="4749" fill="#80bd01"></path></svg>